<svg viewBox="0 0 972 971">
<path fill-rule="evenodd" clip-rule="evenodd" d="M486 751C632.355 751 751 632.355 751 486C751 339.645 632.355 221 486 221C339.645 221 221 339.645 221 486C221 632.355 339.645 751 486 751ZM486 761C637.878 761 761 637.878 761 486C761 334.122 637.878 211 486 211C334.122 211 211 334.122 211 486C211 637.878 334.122 761 486 761Z" fill="black"/>
<path fill-rule="evenodd" clip-rule="evenodd" d="M486 732C621.862 732 732 621.862 732 486C732 350.138 621.862 240 486 240C350.138 240 240 350.138 240 486C240 621.862 350.138 732 486 732ZM486 742C627.385 742 742 627.385 742 486C742 344.615 627.385 230 486 230C344.615 230 230 344.615 230 486C230 627.385 344.615 742 486 742Z" fill="black"/>
<path fill-rule="evenodd" clip-rule="evenodd" d="M750.799 496.419L740.806 496.033C740.935 492.705 741 489.36 741 486C741 482.64 740.935 479.295 740.806 475.967L750.799 475.581C750.933 479.037 751 482.511 751 486C751 489.489 750.933 492.963 750.799 496.419ZM749.187 454.833L739.255 455.997C738.473 449.323 737.433 442.728 736.146 436.223L745.956 434.282C747.294 441.044 748.374 447.898 749.187 454.833ZM741.113 414.039L731.487 416.749C729.671 410.297 727.607 403.949 725.307 397.716L734.688 394.254C737.079 400.733 739.225 407.332 741.113 414.039ZM726.715 375.027L717.636 379.219C714.83 373.143 711.792 367.195 708.533 361.388L717.254 356.494C720.641 362.529 723.799 368.711 726.715 375.027ZM706.365 338.762L698.055 344.325C694.336 338.769 690.403 333.367 686.27 328.131L694.119 321.935C698.414 327.376 702.5 332.989 706.365 338.762ZM680.597 306.118L673.256 312.908C668.721 308.004 663.996 303.279 659.092 298.744L665.882 291.403C670.977 296.114 675.886 301.023 680.597 306.118ZM650.065 277.881L643.869 285.73C638.633 281.597 633.231 277.664 627.675 273.945L633.238 265.635C639.012 269.5 644.625 273.586 650.065 277.881ZM615.506 254.746L610.612 263.467C604.805 260.208 598.857 257.17 592.781 254.364L596.973 245.285C603.289 248.201 609.471 251.359 615.506 254.746ZM577.746 237.312L574.284 246.693C568.051 244.393 561.703 242.329 555.251 240.513L557.961 230.887C564.668 232.775 571.267 234.921 577.746 237.312ZM537.718 226.044L535.777 235.854C529.272 234.567 522.678 233.527 516.003 232.745L517.167 222.813C524.103 223.626 530.956 224.706 537.718 226.044ZM496.419 221.201L496.033 231.194C492.705 231.065 489.36 231 486 231C482.64 231 479.295 231.065 475.967 231.194L475.581 221.201C479.037 221.067 482.511 221 486 221C489.489 221 492.963 221.067 496.419 221.201ZM454.833 222.813L455.997 232.745C449.323 233.527 442.728 234.567 436.223 235.854L434.282 226.044C441.044 224.706 447.898 223.626 454.833 222.813ZM414.039 230.887L416.749 240.513C410.297 242.329 403.949 244.393 397.716 246.693L394.254 237.312C400.733 234.921 407.332 232.775 414.039 230.887ZM375.027 245.285L379.219 254.364C373.143 257.17 367.195 260.208 361.388 263.467L356.494 254.746C362.529 251.359 368.711 248.201 375.027 245.285ZM338.762 265.635L344.325 273.945C338.769 277.664 333.367 281.597 328.131 285.73L321.935 277.881C327.376 273.586 332.989 269.5 338.762 265.635ZM306.118 291.403L312.908 298.744C308.004 303.279 303.279 308.004 298.744 312.908L291.403 306.118C296.114 301.023 301.023 296.114 306.118 291.403ZM277.881 321.935L285.73 328.131C281.597 333.367 277.664 338.769 273.945 344.325L265.635 338.762C269.5 332.988 273.586 327.375 277.881 321.935ZM254.746 356.494L263.467 361.388C260.208 367.195 257.17 373.143 254.364 379.219L245.285 375.027C248.201 368.711 251.359 362.529 254.746 356.494ZM237.312 394.254L246.693 397.716C244.393 403.949 242.329 410.297 240.513 416.748L230.887 414.039C232.775 407.332 234.921 400.733 237.312 394.254ZM226.044 434.282L235.854 436.223C234.567 442.728 233.527 449.322 232.745 455.997L222.813 454.833C223.626 447.898 224.706 441.044 226.044 434.282ZM221.201 475.581C221.067 479.037 221 482.511 221 486C221 489.489 221.067 492.963 221.201 496.419L231.194 496.033C231.065 492.705 231 489.36 231 486C231 482.64 231.065 479.295 231.194 475.967L221.201 475.581ZM222.813 517.167L232.745 516.003C233.527 522.677 234.567 529.272 235.854 535.777L226.044 537.718C224.706 530.956 223.626 524.102 222.813 517.167ZM230.887 557.961L240.513 555.251C242.329 561.703 244.393 568.051 246.693 574.284L237.312 577.746C234.921 571.267 232.775 564.668 230.887 557.961ZM245.285 596.973L254.364 592.781C257.17 598.857 260.208 604.805 263.467 610.612L254.746 615.506C251.359 609.471 248.201 603.289 245.285 596.973ZM265.635 633.238L273.945 627.675C277.664 633.231 281.597 638.633 285.73 643.869L277.881 650.065C273.586 644.624 269.5 639.012 265.635 633.238ZM291.403 665.882L298.744 659.092C303.279 663.996 308.004 668.721 312.908 673.256L306.118 680.597C301.023 675.886 296.114 670.977 291.403 665.882ZM321.935 694.119L328.131 686.27C333.367 690.403 338.769 694.336 344.325 698.055L338.762 706.365C332.988 702.5 327.375 698.414 321.935 694.119ZM356.494 717.254L361.388 708.533C367.195 711.792 373.143 714.83 379.219 717.636L375.027 726.715C368.711 723.799 362.529 720.641 356.494 717.254ZM394.254 734.688L397.716 725.307C403.949 727.607 410.297 729.671 416.748 731.487L414.039 741.113C407.332 739.225 400.733 737.079 394.254 734.688ZM434.282 745.956L436.223 736.146C442.728 737.433 449.322 738.473 455.997 739.255L454.833 749.187C447.898 748.374 441.044 747.294 434.282 745.956ZM475.581 750.799L475.967 740.806C479.295 740.935 482.64 741 486 741C489.36 741 492.705 740.935 496.033 740.806L496.419 750.799C492.963 750.933 489.489 751 486 751C482.511 751 479.037 750.933 475.581 750.799ZM517.167 749.187L516.003 739.255C522.677 738.473 529.272 737.433 535.777 736.146L537.718 745.956C530.956 747.294 524.102 748.374 517.167 749.187ZM557.961 741.113L555.251 731.487C561.703 729.671 568.051 727.607 574.284 725.307L577.746 734.688C571.267 737.079 564.668 739.225 557.961 741.113ZM596.973 726.715L592.781 717.636C598.857 714.83 604.805 711.792 610.612 708.533L615.506 717.254C609.471 720.641 603.289 723.799 596.973 726.715ZM633.238 706.365L627.675 698.055C633.231 694.336 638.633 690.403 643.869 686.27L650.065 694.119C644.624 698.414 639.012 702.5 633.238 706.365ZM665.882 680.597L659.092 673.256C663.996 668.721 668.721 663.996 673.256 659.092L680.597 665.882C675.886 670.977 670.977 675.886 665.882 680.597ZM694.119 650.065L686.27 643.869C690.403 638.633 694.336 633.231 698.055 627.675L706.365 633.238C702.5 639.012 698.414 644.625 694.119 650.065ZM717.254 615.506L708.533 610.612C711.792 604.805 714.83 598.857 717.636 592.781L726.715 596.973C723.799 603.289 720.641 609.471 717.254 615.506ZM734.688 577.746L725.307 574.284C727.607 568.051 729.671 561.703 731.487 555.251L741.113 557.961C739.225 564.668 737.079 571.267 734.688 577.746ZM745.956 537.718L736.146 535.777C737.433 529.272 738.473 522.678 739.255 516.003L749.187 517.167C748.374 524.102 747.294 530.957 745.956 537.718Z" fill="black"/>
<path d="M439 133V0H455.34L515.76 105.07V0H531.53V133H515L454.58 27.93V133H439Z" fill="black"/>
<path d="M486.17 970.56C476.797 970.56 468.627 968.787 461.66 965.24C454.82 961.693 449.5 956.753 445.7 950.42C442.027 944.087 440.127 936.677 440 928.19H456.72C456.847 935.79 459.38 942.377 464.32 947.95C469.387 953.397 476.67 956.12 486.17 956.12C494.91 956.12 501.623 954.03 506.31 949.85C511.123 945.543 513.53 940.413 513.53 934.46C513.53 929.52 512.39 925.403 510.11 922.11C507.83 918.69 504.093 915.713 498.9 913.18C493.833 910.52 486.993 907.797 478.38 905.01C466.22 901.337 457.353 896.333 451.78 890C446.207 883.667 443.42 875.813 443.42 866.44C443.42 860.107 445.067 854.407 448.36 849.34C451.653 844.273 456.403 840.283 462.61 837.37C468.817 834.457 476.353 833 485.22 833C493.58 833 500.863 834.583 507.07 837.75C513.403 840.79 518.28 845.097 521.7 850.67C525.247 856.243 527.02 862.64 527.02 869.86H510.3C510.3 866.313 509.35 862.83 507.45 859.41C505.55 855.99 502.7 853.14 498.9 850.86C495.1 848.58 490.287 847.44 484.46 847.44C477.493 847.44 471.667 849.15 466.98 852.57C462.293 855.863 459.95 860.423 459.95 866.25C459.95 870.683 460.963 874.42 462.99 877.46C465.143 880.5 468.627 883.287 473.44 885.82C478.253 888.227 484.777 890.823 493.01 893.61C500.737 896.143 507.323 899.12 512.77 902.54C518.343 905.833 522.587 909.95 525.5 914.89C528.54 919.83 530.06 925.973 530.06 933.32C530.06 940.54 528.223 946.937 524.55 952.51C520.877 958.083 515.747 962.517 509.16 965.81C502.573 968.977 494.91 970.56 486.17 970.56Z" fill="black"/>
<path d="M888 552V419H971.03V433.44H903.96V477.71H965.33V492.15H903.96V537.56H971.03V552H888Z" fill="black"/>
<path d="M20.33 552L0 419H16.15L29.64 521.6L48.45 419H64.79L83.6 521.6L97.09 419H113.24L92.91 552H74.67L56.62 449.78L38.57 552H20.33Z" fill="black"/>
</svg>
