<svg width="1511" height="542" viewBox="0 0 1511 542" fill="none" xmlns="http://www.w3.org/2000/svg">
<path fill-rule="evenodd" clip-rule="evenodd" d="M162.28 292H146.28V346.279C148.923 346.094 151.591 346 154.28 346C156.97 346 159.638 346.094 162.28 346.279V292ZM212.142 361.918C216.737 364.663 221.122 367.724 225.264 371.073L256.334 326.7L243.228 317.522L212.142 361.918ZM252.852 403.708C255.455 408.339 257.742 413.172 259.682 418.178L308.562 395.384L301.8 380.883L252.852 403.708ZM48.8794 418.177C50.8193 413.172 53.106 408.338 55.709 403.708L6.76172 380.883L0 395.384L48.8794 418.177ZM83.2974 371.072C87.4399 367.724 91.8242 364.662 96.4194 361.917L65.334 317.522L52.2275 326.7L83.2974 371.072ZM254.28 459C254.28 403.771 209.509 359 154.28 359C99.0518 359 54.2803 403.771 54.2803 459H254.28ZM1364.28 292H1348.28V346.279C1349.81 346.171 1351.35 346.095 1352.9 346.049C1354.02 346.017 1355.15 346 1356.28 346C1358.97 346 1361.64 346.094 1364.28 346.279V292ZM1414.14 361.918C1418.74 364.663 1423.12 367.724 1427.26 371.073L1458.33 326.7L1445.23 317.522L1414.14 361.918ZM1454.85 403.708C1457.46 408.339 1459.74 413.172 1461.68 418.178L1510.56 395.384L1503.8 380.883L1454.85 403.708ZM1250.88 418.177C1252.82 413.172 1255.11 408.338 1257.71 403.708L1208.76 380.883L1202 395.384L1250.88 418.177ZM1285.3 371.072C1289.44 367.724 1293.82 364.662 1298.42 361.917L1267.33 317.522L1254.23 326.7L1285.3 371.072ZM1456.28 459C1456.28 403.771 1411.51 359 1356.28 359C1301.05 359 1256.28 403.771 1256.28 459H1456.28Z" fill="#D9D9D9"/>
<path fill-rule="evenodd" clip-rule="evenodd" d="M308 459H0V466H308V459ZM1510 459H1202V466H1510V459ZM180.828 522.25L154.414 481L128 522.25H146V542H162V522.25H180.828ZM1356.41 542L1382.83 500.75H1364V481H1348V500.75H1330L1356.41 542Z" fill="#999999"/>
<circle cx="1115" cy="89" r="35" fill="#D33F3F"/>
<path fill-rule="evenodd" clip-rule="evenodd" d="M742.972 12.0184C744.976 12.0062 746.985 12 749 12C751.015 12 753.024 12.0062 755.028 12.0184C756.685 12.0285 758.036 10.6936 758.046 9.03679C758.056 7.37997 756.721 6.02864 755.064 6.01851C753.048 6.00619 751.027 6 749 6C746.973 6 744.951 6.00619 742.935 6.01851C741.278 6.02864 739.943 7.37997 739.954 9.03679C739.964 10.6936 741.315 12.0285 742.972 12.0184ZM767.096 6.16551C765.44 6.13511 764.072 7.45339 764.042 9.10997C764.011 10.7665 765.33 12.1341 766.986 12.1645C770.951 12.2372 774.894 12.3339 778.815 12.4539C780.471 12.5046 781.855 11.2031 781.905 9.54706C781.956 7.89098 780.655 6.50737 778.999 6.45669C775.053 6.33592 771.085 6.2387 767.096 6.16551ZM731.014 12.1645C732.67 12.1341 733.988 10.7665 733.958 9.10997C733.928 7.45339 732.56 6.13512 730.903 6.16551C726.914 6.23871 722.947 6.33593 719.001 6.4567C717.345 6.50738 716.044 7.89099 716.094 9.54707C716.145 11.2031 717.528 12.5046 719.185 12.4539C723.106 12.3339 727.049 12.2372 731.014 12.1645ZM790.908 6.89496C789.252 6.82374 787.853 8.10791 787.781 9.76323C787.71 11.4186 788.994 12.8182 790.65 12.8894C794.659 13.0619 798.645 13.2589 802.608 13.4798C804.263 13.572 805.678 12.3057 805.771 10.6514C805.863 8.99708 804.597 7.58127 802.942 7.48907C798.954 7.26676 794.942 7.06854 790.908 6.89496ZM707.35 12.8894C709.005 12.8182 710.289 11.4186 710.218 9.76325C710.147 8.10792 708.747 6.82375 707.092 6.89497C703.057 7.06855 699.046 7.26677 695.057 7.48908C693.403 7.58129 692.137 8.9971 692.229 10.6514C692.321 12.3057 693.737 13.572 695.391 13.4798C699.355 13.2589 703.341 13.0619 707.35 12.8894ZM814.839 8.22774C813.186 8.11456 811.754 9.36282 811.641 11.0158C811.528 12.6688 812.776 14.1005 814.429 14.2137C818.385 14.4845 822.316 14.7792 826.225 15.0972C827.876 15.2315 829.324 14.0017 829.458 12.3503C829.593 10.6989 828.363 9.25127 826.711 9.11693C822.777 8.79689 818.82 8.50031 814.839 8.22774ZM683.57 14.2137C685.223 14.1006 686.472 12.6688 686.358 11.0158C686.245 9.36284 684.814 8.11458 683.161 8.22776C679.18 8.50033 675.222 8.79691 671.288 9.11695C669.637 9.25129 668.407 10.6989 668.541 12.3503C668.676 14.0017 670.123 15.2315 671.775 15.0972C675.683 14.7792 679.615 14.4846 683.57 14.2137ZM838.718 10.1727C837.069 10.0168 835.605 11.2275 835.449 12.877C835.293 14.5265 836.504 15.9901 838.153 16.1461C842.105 16.5198 846.032 16.9172 849.935 17.3379C851.583 17.5154 853.062 16.3239 853.24 14.6766C853.417 13.0293 852.226 11.55 850.578 11.3724C846.649 10.949 842.696 10.5489 838.718 10.1727ZM659.846 16.1461C661.496 15.9902 662.707 14.5266 662.551 12.8771C662.395 11.2276 660.931 10.0168 659.282 10.1728C655.304 10.5489 651.35 10.949 647.421 11.3725C645.774 11.55 644.583 13.0294 644.76 14.6767C644.938 16.324 646.417 17.5155 648.064 17.3379C651.967 16.9172 655.895 16.5198 659.846 16.1461ZM862.421 12.7279C860.776 12.5286 859.281 13.7005 859.082 15.3453C858.883 16.9901 860.054 18.4851 861.699 18.6844C865.68 19.1668 869.636 19.6734 873.565 20.2034C875.207 20.4249 876.718 19.2733 876.939 17.6314C877.161 15.9894 876.009 14.4787 874.367 14.2573C870.411 13.7236 866.429 13.2136 862.421 12.7279ZM636.301 18.6844C637.945 18.4851 639.117 16.9901 638.918 15.3453C638.719 13.7005 637.224 12.5287 635.579 12.728C631.571 13.2137 627.589 13.7236 623.632 14.2573C621.99 14.4788 620.839 15.9894 621.06 17.6314C621.282 19.2734 622.793 20.4249 624.435 20.2034C628.364 19.6734 632.319 19.1668 636.301 18.6844ZM886.158 15.9284C884.519 15.6849 882.993 16.816 882.75 18.4548C882.506 20.0937 883.637 21.6197 885.276 21.8633C889.214 22.4485 893.125 23.0573 897.01 23.689C898.645 23.9549 900.187 22.8447 900.453 21.2093C900.718 19.574 899.608 18.0327 897.973 17.7668C894.061 17.1307 890.123 16.5177 886.158 15.9284ZM612.724 21.8633C614.363 21.6197 615.494 20.0937 615.25 18.4549C615.007 16.816 613.481 15.6849 611.842 15.9285C607.877 16.5178 603.938 17.1308 600.027 17.7668C598.391 18.0327 597.281 19.574 597.547 21.2094C597.813 22.8448 599.354 23.9549 600.99 23.689C604.874 23.0574 608.786 22.4486 612.724 21.8633ZM909.825 19.778C908.193 19.4895 906.637 20.5782 906.348 22.2098C906.06 23.8413 907.148 25.3978 908.78 25.6863C912.676 26.3752 916.544 27.0871 920.385 27.8211C922.012 28.1321 923.584 27.0649 923.895 25.4375C924.206 23.8101 923.139 22.2387 921.511 21.9277C917.643 21.1885 913.748 20.4717 909.825 19.778ZM589.22 25.6864C590.851 25.3978 591.94 23.8413 591.652 22.2098C591.363 20.5783 589.807 19.4895 588.175 19.778C584.252 20.4718 580.356 21.1886 576.488 21.9278C574.861 22.2388 573.794 23.8102 574.105 25.4376C574.416 27.065 575.987 28.1321 577.615 27.8211C581.456 27.0871 585.324 26.3753 589.22 25.6864ZM933.296 24.2657C931.673 23.9319 930.087 24.9768 929.753 26.5997C929.419 28.2226 930.464 29.8088 932.087 30.1426C935.996 30.9467 939.875 31.7737 943.726 32.6227C945.344 32.9795 946.944 31.9571 947.301 30.3391C947.658 28.7211 946.636 27.1202 945.018 26.7635C941.14 25.9084 937.232 25.0755 933.296 24.2657ZM565.913 30.1427C567.536 29.8088 568.58 28.2226 568.247 26.5997C567.913 24.9769 566.327 23.9319 564.704 24.2658C560.767 25.0756 556.86 25.9084 552.982 26.7635C551.364 27.1203 550.342 28.7211 550.699 30.3391C551.055 31.9571 552.656 32.9795 554.274 32.6228C558.125 31.7737 562.004 30.9468 565.913 30.1427ZM956.572 29.3967C954.959 29.0171 953.344 30.0169 952.965 31.6297C952.585 33.2425 953.585 34.8576 955.197 35.2371C959.114 36.1587 962.999 37.103 966.853 38.0691C968.46 38.472 970.09 37.4957 970.492 35.8886C970.895 34.2814 969.919 32.652 968.312 32.2492C964.43 31.276 960.516 30.3249 956.572 29.3967ZM542.802 35.2372C544.415 34.8576 545.415 33.2425 545.035 31.6297C544.656 30.0169 543.041 29.0172 541.428 29.3967C537.483 30.325 533.57 31.2761 529.688 32.2492C528.081 32.652 527.105 34.2815 527.507 35.8886C527.91 37.4957 529.54 38.472 531.147 38.0692C535.001 37.1031 538.886 36.1588 542.802 35.2372ZM979.865 35.2336C978.264 34.8077 976.621 35.7604 976.195 37.3616C975.769 38.9627 976.722 40.606 978.323 41.032C982.168 42.0549 985.982 43.0994 989.764 44.1645C991.359 44.6137 993.016 43.6849 993.465 42.0901C993.914 40.4953 992.985 38.8383 991.391 38.3892C987.581 37.3162 983.739 36.2641 979.865 35.2336ZM519.677 41.032C521.278 40.6061 522.231 38.9628 521.805 37.3616C521.379 35.7605 519.736 34.8077 518.134 35.2337C514.261 36.2641 510.419 37.3163 506.609 38.3892C505.014 38.8383 504.086 40.4953 504.535 42.0901C504.984 43.6849 506.641 44.6137 508.236 44.1646C512.018 43.0995 515.831 42.055 519.677 41.032ZM1002.93 41.7318C1001.35 41.2593 999.676 42.1636 999.203 43.7517C998.731 45.3397 999.635 47.0101 1001.22 47.4827C1005.01 48.6095 1008.76 49.7567 1012.49 50.9234C1014.07 51.419 1015.75 50.5392 1016.25 48.9582C1016.74 47.3772 1015.86 45.6938 1014.28 45.1981C1010.53 44.0227 1006.75 42.867 1002.93 41.7318ZM496.777 47.4827C498.365 47.0102 499.269 45.3397 498.796 43.7517C498.324 42.1637 496.653 41.2593 495.065 41.7319C491.25 42.867 487.468 44.0228 483.719 45.1982C482.138 45.6938 481.258 47.3773 481.754 48.9583C482.25 50.5392 483.933 51.4191 485.514 50.9234C489.235 49.7567 492.99 48.6095 496.777 47.4827ZM1025.76 48.8927C1024.19 48.3735 1022.49 49.2281 1021.98 50.8015C1021.46 52.3749 1022.31 54.0712 1023.88 54.5905C1027.66 55.8364 1031.4 57.102 1035.11 58.3863C1036.67 58.9288 1038.38 58.0995 1038.92 56.534C1039.47 54.9685 1038.64 53.2596 1037.07 52.7171C1033.34 51.4231 1029.57 50.1479 1025.76 48.8927ZM474.116 54.5905C475.689 54.0713 476.544 52.3749 476.025 50.8015C475.505 49.2281 473.809 48.3735 472.236 48.8927C468.432 50.148 464.663 51.4231 460.929 52.7171C459.363 53.2596 458.534 54.9685 459.077 56.534C459.619 58.0996 461.328 58.9288 462.894 58.3863C466.599 57.102 470.34 55.8364 474.116 54.5905ZM1048.35 56.719C1046.79 56.1531 1045.07 56.9567 1044.5 58.5139C1043.94 60.0711 1044.74 61.7923 1046.3 62.3582C1050.05 63.7241 1053.78 65.1087 1057.46 66.511C1059.01 67.1004 1060.74 66.3229 1061.33 64.7744C1061.92 63.2259 1061.14 61.4928 1059.59 60.9035C1055.88 59.4905 1052.13 58.0953 1048.35 56.719ZM451.704 62.3582C453.261 61.7923 454.064 60.0712 453.499 58.514C452.933 56.9568 451.211 56.1531 449.654 56.7191C445.867 58.0953 442.118 59.4905 438.405 60.9035C436.857 61.4929 436.079 63.226 436.669 64.7744C437.258 66.3229 438.991 67.1004 440.539 66.5111C444.224 65.1088 447.945 63.7241 451.704 62.3582ZM1070.67 65.2133C1069.13 64.6007 1067.38 65.3521 1066.77 66.8915C1066.16 68.431 1066.91 70.1756 1068.45 70.7881C1072.18 72.2746 1075.88 73.7786 1079.54 75.2989C1081.07 75.935 1082.82 75.2104 1083.46 73.6806C1084.09 72.1507 1083.37 70.3948 1081.84 69.7587C1078.16 68.2267 1074.43 66.7111 1070.67 65.2133ZM429.551 70.7882C431.09 70.1756 431.842 68.431 431.229 66.8916C430.617 65.3521 428.872 64.6007 427.333 65.2133C423.568 66.7111 419.844 68.2267 416.16 69.7587C414.63 70.3948 413.905 72.1507 414.541 73.6806C415.177 75.2105 416.933 75.935 418.463 75.2989C422.12 73.7786 425.815 72.2746 429.551 70.7882ZM1092.77 74.4028C1091.25 73.7435 1089.49 74.4413 1088.83 75.9614C1088.17 77.4814 1088.87 79.2481 1090.39 79.9074C1094.07 81.5063 1097.72 83.1211 1101.32 84.7504C1102.83 85.4331 1104.61 84.7627 1105.29 83.253C1105.97 81.7434 1105.3 79.9661 1103.79 79.2834C1100.16 77.6414 1096.49 76.0141 1092.77 74.4028ZM407.612 79.9074C409.132 79.2482 409.83 77.4815 409.171 75.9614C408.512 74.4414 406.745 73.7436 405.225 74.4028C401.51 76.0141 397.837 77.6415 394.206 79.2835C392.696 79.9661 392.026 81.7434 392.708 83.2531C393.391 84.7627 395.168 85.4331 396.678 84.7505C400.281 83.1211 403.926 81.5063 407.612 79.9074ZM1114.62 84.2781C1113.12 83.5723 1111.33 84.2153 1110.63 85.7143C1109.92 87.2133 1110.56 89.0007 1112.06 89.7065C1115.69 91.4129 1119.27 93.1331 1122.8 94.8657C1124.29 95.5947 1126.09 94.9796 1126.81 93.4917C1127.54 92.0039 1126.93 90.2068 1125.44 89.4777C1121.88 87.7316 1118.27 85.9979 1114.62 84.2781ZM385.939 89.7066C387.438 89.0007 388.081 87.2134 387.375 85.7144C386.669 84.2154 384.882 83.5724 383.383 84.2782C379.73 85.9979 376.122 87.7316 372.559 89.4778C371.071 90.2068 370.456 92.0039 371.185 93.4918C371.914 94.9796 373.711 95.5947 375.199 94.8657C378.735 93.1332 382.315 91.4129 385.939 89.7066ZM1136.13 94.8189C1134.65 94.0668 1132.85 94.6539 1132.1 96.1302C1131.34 97.6065 1131.93 99.413 1133.41 100.165C1136.97 101.981 1140.49 103.807 1143.96 105.644C1145.42 106.419 1147.24 105.86 1148.01 104.396C1148.79 102.932 1148.23 101.116 1146.76 100.341C1143.27 98.4899 1139.72 96.6486 1136.13 94.8189ZM364.593 100.165C366.069 99.4131 366.656 97.6066 365.904 96.1303C365.152 94.6539 363.346 94.0668 361.87 94.8189C358.278 96.6486 354.733 98.49 351.236 100.341C349.772 101.116 349.213 102.932 349.988 104.396C350.763 105.86 352.579 106.419 354.043 105.644C357.513 103.807 361.029 101.981 364.593 100.165ZM1157.3 106.022C1155.84 105.224 1154.02 105.754 1153.22 107.206C1152.42 108.658 1152.95 110.482 1154.41 111.28C1157.91 113.207 1161.37 115.142 1164.77 117.084C1166.21 117.905 1168.04 117.404 1168.86 115.964C1169.68 114.525 1169.18 112.693 1167.74 111.872C1164.31 109.915 1160.83 107.964 1157.3 106.022ZM343.595 111.28C345.047 110.482 345.577 108.658 344.779 107.206C343.981 105.754 342.157 105.224 340.705 106.022C337.172 107.964 333.689 109.915 330.257 111.872C328.818 112.693 328.317 114.525 329.138 115.964C329.959 117.404 331.791 117.905 333.23 117.084C336.635 115.142 340.089 113.207 343.595 111.28ZM1178.09 117.883C1176.66 117.039 1174.82 117.511 1173.98 118.937C1173.14 120.363 1173.61 122.203 1175.03 123.046C1178.48 125.087 1181.88 127.133 1185.22 129.182C1186.63 130.049 1188.48 129.606 1189.34 128.194C1190.21 126.782 1189.77 124.934 1188.36 124.068C1184.99 122.002 1181.57 119.94 1178.09 117.883ZM322.967 123.047C324.393 122.203 324.865 120.363 324.021 118.937C323.177 117.511 321.337 117.039 319.911 117.883C316.434 119.94 313.012 122.003 309.645 124.068C308.232 124.935 307.79 126.782 308.656 128.194C309.523 129.606 311.37 130.049 312.782 129.182C316.122 127.133 319.517 125.087 322.967 123.047ZM1198.48 130.393C1197.08 129.504 1195.23 129.917 1194.34 131.315C1193.45 132.714 1193.87 134.568 1195.26 135.457C1198.66 137.616 1202 139.776 1205.27 141.934C1206.66 142.846 1208.52 142.463 1209.43 141.079C1210.34 139.696 1209.96 137.835 1208.57 136.924C1205.27 134.748 1201.91 132.57 1198.48 130.393ZM302.736 135.457C304.134 134.568 304.547 132.714 303.658 131.316C302.769 129.917 300.915 129.504 299.517 130.393C296.093 132.57 292.73 134.748 289.427 136.924C288.044 137.835 287.661 139.696 288.572 141.079C289.484 142.463 291.345 142.846 292.728 141.934C296.004 139.776 299.34 137.616 302.736 135.457ZM1218.44 143.542C1217.07 142.608 1215.21 142.96 1214.27 144.329C1213.34 145.698 1213.69 147.564 1215.06 148.498C1218.41 150.78 1221.68 153.058 1224.89 155.328C1226.25 156.284 1228.12 155.963 1229.08 154.61C1230.03 153.257 1229.71 151.385 1228.36 150.428C1225.12 148.14 1221.82 145.843 1218.44 143.542ZM282.939 148.498C284.307 147.564 284.66 145.698 283.726 144.329C282.792 142.96 280.926 142.608 279.557 143.542C276.184 145.843 272.879 148.14 269.642 150.428C268.289 151.385 267.967 153.257 268.924 154.61C269.88 155.963 271.752 156.284 273.105 155.328C276.316 153.058 279.593 150.781 282.939 148.498ZM1238.01 157.374C1236.68 156.396 1234.8 156.686 1233.82 158.023C1232.84 159.36 1233.13 161.237 1234.47 162.216C1237.73 164.605 1240.92 166.981 1244.03 169.341C1245.35 170.342 1247.23 170.083 1248.24 168.763C1249.24 167.443 1248.98 165.561 1247.66 164.56C1244.52 162.18 1241.3 159.783 1238.01 157.374ZM263.53 162.216C264.867 161.237 265.158 159.36 264.179 158.023C263.2 156.686 261.323 156.396 259.986 157.375C256.695 159.784 253.481 162.18 250.342 164.56C249.022 165.561 248.763 167.443 249.764 168.763C250.766 170.084 252.647 170.342 253.968 169.341C257.08 166.981 260.267 164.605 263.53 162.216ZM1257.16 171.891C1255.85 170.868 1253.97 171.094 1252.94 172.397C1251.92 173.7 1252.15 175.586 1253.45 176.609C1256.6 179.081 1259.66 181.53 1262.63 183.952C1263.92 184.998 1265.81 184.804 1266.85 183.519C1267.9 182.234 1267.7 180.345 1266.42 179.299C1263.42 176.855 1260.33 174.385 1257.16 171.891ZM244.551 176.61C245.854 175.586 246.08 173.7 245.057 172.397C244.033 171.094 242.147 170.868 240.844 171.891C237.671 174.385 234.583 176.855 231.58 179.299C230.295 180.345 230.101 182.234 231.147 183.519C232.193 184.805 234.082 184.998 235.367 183.953C238.344 181.53 241.405 179.081 244.551 176.61ZM1275.71 187.002C1274.45 185.933 1272.56 186.093 1271.49 187.359C1270.42 188.626 1270.58 190.518 1271.84 191.587C1274.96 194.215 1277.97 196.804 1280.87 199.347C1282.12 200.438 1284.01 200.312 1285.11 199.066C1286.2 197.819 1286.07 195.924 1284.83 194.833C1281.89 192.266 1278.86 189.653 1275.71 187.002ZM226.155 191.587C227.421 190.518 227.581 188.626 226.513 187.36C225.444 186.093 223.551 185.933 222.285 187.002C219.143 189.653 216.106 192.266 213.174 194.833C211.928 195.924 211.802 197.819 212.894 199.066C213.985 200.313 215.88 200.438 217.127 199.347C220.032 196.804 223.041 194.215 226.155 191.587ZM1293.74 202.783C1292.51 201.668 1290.61 201.759 1289.5 202.985C1288.39 204.211 1288.48 206.108 1289.7 207.223C1292.72 209.962 1295.6 212.636 1298.35 215.236C1299.56 216.374 1301.45 216.32 1302.59 215.116C1303.73 213.911 1303.68 212.013 1302.47 210.875C1299.69 208.248 1296.78 205.548 1293.74 202.783ZM208.298 207.223C209.524 206.108 209.614 204.211 208.5 202.985C207.385 201.759 205.488 201.668 204.262 202.783C201.219 205.548 198.308 208.249 195.529 210.875C194.324 212.013 194.27 213.911 195.408 215.116C196.546 216.32 198.445 216.374 199.649 215.236C202.401 212.636 205.284 209.962 208.298 207.223ZM1311.09 219.178C1309.9 218.016 1308 218.032 1306.84 219.213C1305.68 220.394 1305.7 222.293 1306.88 223.455C1309.85 226.384 1312.64 229.192 1315.24 231.864C1316.4 233.052 1318.3 233.077 1319.49 231.922C1320.67 230.766 1320.7 228.867 1319.54 227.679C1316.91 224.977 1314.09 222.138 1311.09 219.178ZM191.123 223.455C192.304 222.293 192.319 220.394 191.157 219.213C189.995 218.032 188.096 218.016 186.915 219.178C183.906 222.138 181.087 224.977 178.457 227.68C177.301 228.867 177.327 230.766 178.514 231.922C179.701 233.077 181.601 233.052 182.756 231.865C185.357 229.192 188.145 226.384 191.123 223.455ZM1327.83 236.399C1326.71 235.184 1324.81 235.113 1323.59 236.24C1322.38 237.368 1322.31 239.266 1323.44 240.48C1325.6 242.81 1327.58 244.989 1329.37 247H1336.69C1336.62 246.427 1336.38 245.869 1335.97 245.402C1333.62 242.729 1330.91 239.714 1327.83 236.399ZM168.631 247H161.312C161.384 246.427 161.623 245.869 162.033 245.403C164.379 242.73 167.089 239.715 170.166 236.399C171.293 235.185 173.191 235.114 174.406 236.241C175.62 237.368 175.691 239.266 174.564 240.48C172.402 242.811 170.424 244.989 168.631 247Z" fill="black"/>
<path fill-rule="evenodd" clip-rule="evenodd" d="M176.711 247C181.676 241.57 187.771 235.172 195.013 228.035C218.605 204.779 254.335 173.686 302.705 142.569C399.392 80.3679 546.678 18 748.809 18C895.211 18 1012.81 50.7154 1103.24 92.3581C1107.75 94.4372 1113.1 92.4627 1115.18 87.9479C1117.25 83.433 1115.28 78.0876 1110.77 76.0085C1018.14 33.3545 897.987 0 748.809 0C542.756 0 392.137 63.6321 292.966 127.431C243.407 159.314 206.719 191.221 182.377 215.215C170.204 227.214 161.113 237.24 155.037 244.303C154.216 245.257 153.451 246.156 152.74 247H176.711Z" fill="black"/>
</svg>
